<svg width="20" height="25" viewBox="0 0 20 25" fill="none" xmlns="http://www.w3.org/2000/svg">
<path d="M15.0096 9.31757H4.65844C4.37275 9.31757 4.14087 9.54945 4.14087 9.83514V18.116C4.14087 19.3664 5.03108 20.4109 6.2111 20.6521V23.2916C6.2111 24.1476 6.90772 24.8442 7.76377 24.8442C8.61982 24.8442 9.31643 24.1476 9.31643 23.2916V20.7038H10.3515V23.2916C10.3515 24.1476 11.0481 24.8442 11.9042 24.8442C12.7602 24.8442 13.4568 24.1476 13.4568 23.2916V20.6521C14.6369 20.4119 15.5271 19.3664 15.5271 18.116V9.83514C15.5271 9.54843 15.2952 9.31757 15.0096 9.31757Z" fill="white"/>
<path d="M12.5429 2.75819L13.4155 0.722112C13.5283 0.459178 13.4062 0.155924 13.1433 0.0430647C12.8835 -0.0708135 12.576 0.0513617 12.4642 0.315314L11.5916 2.35241C11.0379 2.1723 10.4479 2.07191 9.83504 2.07191C9.22227 2.07191 8.63226 2.1723 8.07845 2.35241L7.20386 0.315314C7.09207 0.0513617 6.78464 -0.0718324 6.52481 0.0430647C6.26188 0.155875 6.14077 0.460197 6.25363 0.722112L7.12623 2.75819C5.34896 3.72292 4.14099 5.60577 4.14099 7.76499C4.14099 8.05068 4.37287 8.28256 4.65856 8.28256H15.0096C15.2953 8.28256 15.5272 8.05068 15.5272 7.76499C15.5272 5.60577 14.3192 3.72292 12.5429 2.75819ZM7.76384 6.21233C7.47815 6.21233 7.24627 5.98045 7.24627 5.69476C7.24627 5.40907 7.47815 5.17719 7.76384 5.17719C8.04953 5.17719 8.28141 5.40907 8.28141 5.69476C8.28141 5.98045 8.04953 6.21233 7.76384 6.21233ZM11.9043 6.21233C11.6186 6.21233 11.3867 5.98045 11.3867 5.69476C11.3867 5.40907 11.6186 5.17719 11.9043 5.17719C12.19 5.17719 12.4219 5.40907 12.4219 5.69476C12.4219 5.98045 12.19 6.21233 11.9043 6.21233Z" fill="white"/>
<path d="M18.1149 9.31757C17.2589 9.31757 16.5623 10.0142 16.5623 10.8702V16.0458C16.5623 16.9018 17.2589 17.5984 18.1149 17.5984C18.971 17.5984 19.6676 16.9018 19.6676 16.0458V10.8702C19.6676 10.0142 18.971 9.31757 18.1149 9.31757Z" fill="white"/>
<path d="M1.55315 9.31757C0.6971 9.31757 0.000488281 10.0142 0.000488281 10.8702V16.0458C0.000488281 16.9018 0.6971 17.5984 1.55315 17.5984C2.4092 17.5984 3.10581 16.9018 3.10581 16.0458V10.8702C3.10581 10.0142 2.4092 9.31757 1.55315 9.31757Z" fill="white"/>
</svg>
