<svg width="20" height="25" viewBox="0 0 20 25" fill="none" xmlns="http://www.w3.org/2000/svg">
<path d="M6.63099 24.3822C3.00217 24.3613 0.000488281 16.9536 0.000488281 13.1811C0.000488281 7.01866 4.62336 5.66954 6.40498 5.66954C7.20788 5.66954 8.06521 5.98484 8.82139 6.26385C9.35018 6.45848 9.89707 6.6594 10.2012 6.6594C10.3833 6.6594 10.8123 6.48849 11.1911 6.33853C11.9989 6.01694 13.0041 5.61725 14.1746 5.61725C14.1767 5.61725 14.1795 5.61725 14.1816 5.61725C15.0556 5.61725 17.7058 5.80907 19.299 8.20177L19.6723 8.76261L19.1351 9.16792C18.3678 9.7469 16.9677 10.8031 16.9677 12.8951C16.9677 15.3729 18.5533 16.3258 19.3151 16.7841C19.6514 16.9864 19.9994 17.195 19.9994 17.6512C19.9994 17.9491 17.6221 24.3452 14.1697 24.3452C13.325 24.3452 12.7278 24.0913 12.2011 23.8674C11.6682 23.6406 11.2085 23.4453 10.4488 23.4453C10.0637 23.4453 9.57681 23.6274 9.06131 23.8207C8.35684 24.0836 7.55947 24.3822 6.6547 24.3822H6.63099Z" fill="white"/>
<path d="M14.5404 0C14.6303 3.24189 12.3118 5.49096 9.99608 5.34991C9.61449 2.76277 12.3115 0 14.5404 0Z" fill="white"/>
</svg>
