<svg width="27" height="27" viewBox="0 0 27 27" fill="none" xmlns="http://www.w3.org/2000/svg">
<path d="M14.9916 13.5L26.6911 1.80052C27.103 1.38861 27.103 0.720784 26.6911 0.30893C26.2792 -0.102924 25.6113 -0.102977 25.1995 0.30893L13.5 12.0084L1.80052 0.30893C1.38861 -0.102977 0.720784 -0.102977 0.30893 0.30893C-0.102924 0.720837 -0.102977 1.38866 0.30893 1.80052L12.0084 13.5L0.30893 25.1995C-0.102977 25.6114 -0.102977 26.2792 0.30893 26.6911C0.514857 26.897 0.784804 26.9999 1.05475 26.9999C1.3247 26.9999 1.59459 26.897 1.80057 26.6911L13.5 14.9916L25.1994 26.6911C25.4054 26.897 25.6753 26.9999 25.9452 26.9999C26.2152 26.9999 26.4851 26.897 26.6911 26.6911C27.103 26.2792 27.103 25.6113 26.6911 25.1995L14.9916 13.5Z" fill="black"/>
</svg>
