<svg width="194" height="36" viewBox="0 0 194 36" fill="none" xmlns="http://www.w3.org/2000/svg">
<path d="M7.98313 22.5915H0.663513V1.79614L7.98313 13.0918V22.5915ZM29.5353 1.84133V22.5915H22.1254V13.1709L29.5353 1.84133Z" fill="#00902A"/>
<path d="M29.5353 0L15.0994 21.9363L0.663513 0H7.47482L14.9526 11.6346L22.3852 0H29.5353Z" fill="#00902A"/>
<path d="M38.5042 22.6366H30.5634L43.4518 0H45.8126L58.701 22.6366H50.7488L45.0557 11.8379L44.6491 10.9794L44.6265 11.0246L38.5042 22.6366Z" fill="#00902A"/>
<path d="M59.7177 0.406738H67.1051V17.4068H78.8413V22.6367H59.7177V0.406738Z" fill="#00902A"/>
<path d="M134.145 0.406645V22.614H131.784L116.399 11.3522V22.6366H109.012V0H111.373L126.758 11.5216V0.406645H134.145Z" fill="#00902A"/>
<path d="M156.262 22.6367L145.474 11.5556V22.6367H138.087V0.406738H145.474V10.4712L154.85 0.406738H163.435L153.686 10.9795L165.027 22.6367H156.262Z" fill="#00902A"/>
<path d="M87.7988 22.6366H79.8467L92.7464 0H95.1072L107.996 22.6366H100.043L94.3504 11.8379L93.9437 10.9794L93.9211 11.0246L87.7988 22.6366Z" fill="#00902A"/>
<path d="M173.544 22.6366H165.592L178.492 0H180.853L193.741 22.6366H185.789L180.096 11.8379L179.689 10.9794L179.667 11.0246L173.544 22.6366Z" fill="#00902A"/>
<path d="M190.013 29.1543H187.37V28.2393H193.741V29.1995H191.098V35.9769H189.968L190.013 29.1543ZM181.406 29.1543V31.8314H185.269V32.7576H181.395V35.8639H180.265V28.2393H185.698V29.1995L181.406 29.1543ZM177.385 34.9377V35.8978H171.805V28.2393H177.238V29.1995H172.912V31.5151H176.775V32.4526H172.912V34.9377H177.385ZM168.348 28.1602V35.8526H167.445L162.825 30.1144V35.8526H161.695V28.2393H162.599L167.253 33.8872V28.2393L168.348 28.1602ZM156.002 35.943C155.434 35.9434 154.869 35.8519 154.33 35.6719C153.863 35.5322 153.432 35.2933 153.065 34.9716L153.472 34.1131C153.803 34.3986 154.187 34.6172 154.601 34.7569C155.054 34.9211 155.532 35.0052 156.013 35.0054C156.513 35.0401 157.012 34.9261 157.448 34.6779C157.594 34.588 157.715 34.4617 157.798 34.3112C157.882 34.1608 157.924 33.9913 157.922 33.8194C157.927 33.6998 157.906 33.5806 157.861 33.4696C157.817 33.3587 157.749 33.2584 157.663 33.1755C157.482 33.0034 157.266 32.8723 157.03 32.7915C156.774 32.7011 156.416 32.6032 155.957 32.4978C155.481 32.3896 155.013 32.2499 154.556 32.0799C154.202 31.9453 153.887 31.7239 153.641 31.436C153.382 31.1175 153.246 30.7168 153.257 30.3064C153.249 29.9054 153.364 29.5114 153.585 29.1769C153.831 28.8253 154.172 28.5511 154.568 28.3862C155.087 28.1742 155.645 28.0741 156.205 28.0925C156.659 28.0936 157.111 28.1544 157.55 28.2732C157.953 28.3755 158.335 28.5475 158.679 28.7815L158.318 29.6626C157.999 29.4602 157.653 29.3042 157.29 29.1995C156.923 29.0911 156.542 29.0378 156.16 29.0413C155.669 29.0063 155.18 29.1247 154.76 29.3802C154.615 29.4766 154.497 29.6077 154.416 29.7617C154.335 29.9156 154.294 30.0874 154.296 30.2612C154.291 30.3809 154.311 30.5003 154.356 30.6114C154.401 30.7225 154.469 30.8227 154.556 30.9051C154.745 31.0775 154.969 31.2084 155.211 31.2892C155.56 31.4062 155.914 31.5042 156.273 31.5828C156.749 31.6902 157.217 31.8298 157.674 32.0008C158.021 32.1369 158.331 32.3538 158.577 32.6333C158.839 32.9503 158.976 33.3521 158.962 33.7629C158.97 34.164 158.856 34.5582 158.634 34.8925C158.382 35.2474 158.033 35.522 157.629 35.6832C157.115 35.8881 156.566 35.9879 156.013 35.9769L156.002 35.943ZM147.112 35.943C146.674 35.9684 146.235 35.9033 145.823 35.7517C145.411 35.6002 145.035 35.3653 144.718 35.0619C144.415 34.7176 144.183 34.3167 144.036 33.8825C143.889 33.4483 143.828 32.9892 143.859 32.5317V28.2393H144.989V32.5656C144.989 34.2147 145.712 35.0393 147.158 35.0393C147.455 35.0586 147.753 35.0142 148.031 34.909C148.31 34.8038 148.563 34.6403 148.773 34.4294C149.188 33.901 149.39 33.2357 149.338 32.5656V28.2393H150.399V32.6108C150.431 33.0683 150.371 33.5276 150.224 33.9619C150.076 34.3962 149.844 34.797 149.541 35.141C149.217 35.4387 148.835 35.6665 148.419 35.8103C148.003 35.9541 147.562 36.0108 147.124 35.9769L147.112 35.943ZM137.759 32.5543C138.327 32.592 138.889 32.4324 139.352 32.1024C139.538 31.9453 139.685 31.7473 139.781 31.5238C139.877 31.3003 139.919 31.0576 139.906 30.8147C139.919 30.5735 139.877 30.3325 139.78 30.1108C139.684 29.8892 139.538 29.6931 139.352 29.5383C138.887 29.2141 138.325 29.0587 137.759 29.0978H135.896V32.5656L137.759 32.5543ZM139.94 35.83L138.279 33.4692H137.793H135.896V35.8074H134.766V28.2393H137.771C138.613 28.1913 139.446 28.4434 140.12 28.9509C140.404 29.191 140.629 29.493 140.778 29.8338C140.927 30.1745 140.996 30.5449 140.979 30.9164C140.994 31.4546 140.84 31.9839 140.538 32.43C140.229 32.8611 139.789 33.1817 139.284 33.345L141.114 35.9317L139.94 35.83ZM127.898 35.0167C128.432 35.0253 128.958 34.8928 129.423 34.6327C129.867 34.3811 130.233 34.0142 130.485 33.5709C130.742 33.1078 130.877 32.5869 130.877 32.0573C130.877 31.5276 130.742 31.0067 130.485 30.5436C130.233 30.1004 129.867 29.7335 129.423 29.4818C128.958 29.2217 128.432 29.0892 127.898 29.0978C127.362 29.0899 126.832 29.2223 126.362 29.4818C125.893 29.7225 125.502 30.0905 125.233 30.5436C124.975 31.0067 124.84 31.5276 124.84 32.0573C124.84 32.5869 124.975 33.1078 125.233 33.5709C125.502 34.024 125.893 34.3921 126.362 34.6327C126.832 34.8922 127.362 35.0246 127.898 35.0167V35.0167ZM127.898 35.9995C127.166 36.0115 126.443 35.8366 125.797 35.4912C125.188 35.1641 124.68 34.6756 124.329 34.0792C123.979 33.4668 123.795 32.7738 123.795 32.0686C123.795 31.3634 123.979 30.6703 124.329 30.0579C124.68 29.4615 125.188 28.9731 125.797 28.646C126.444 28.3075 127.163 28.1307 127.893 28.1307C128.623 28.1307 129.341 28.3075 129.988 28.646C130.594 28.9738 131.098 29.4623 131.445 30.0579C131.791 30.6738 131.972 31.3681 131.972 32.0742C131.972 32.7803 131.791 33.4746 131.445 34.0905C131.098 34.6861 130.594 35.1746 129.988 35.5025C129.343 35.8352 128.624 35.9984 127.898 35.9769V35.9995ZM116.896 28.2393H118.026V35.0167H122.194V35.9769H116.896V28.2393ZM113.971 35.0167V35.9769H108.391V28.2393H113.824V29.1995H109.498V31.5151H113.361V32.4526H109.498V34.9377L113.971 35.0167ZM102.562 35.0167C103.052 35.0506 103.542 34.9448 103.974 34.7118C104.128 34.6024 104.252 34.4562 104.335 34.2865C104.418 34.1168 104.457 33.929 104.448 33.7403C104.448 32.8819 103.823 32.4526 102.573 32.4526H100.066V35.0167H102.562ZM100.066 29.0865V31.549H102.325C102.78 31.577 103.233 31.4668 103.624 31.2327C103.769 31.128 103.886 30.9904 103.967 30.8314C104.049 30.6723 104.091 30.4963 104.091 30.3177C104.091 30.1391 104.049 29.9631 103.967 29.8041C103.886 29.645 103.769 29.5075 103.624 29.4028C103.233 29.1687 102.78 29.0584 102.325 29.0865H100.066ZM104.143 31.8991C104.558 32.0047 104.927 32.2426 105.194 32.5769C105.458 32.9316 105.594 33.3659 105.578 33.8081C105.592 34.1072 105.53 34.405 105.397 34.6736C105.265 34.9422 105.067 35.173 104.821 35.3443C104.164 35.7458 103.399 35.9351 102.63 35.8865H98.9362V28.2393H102.393C103.113 28.1939 103.83 28.3799 104.437 28.7702C104.669 28.9344 104.856 29.1535 104.982 29.4077C105.108 29.662 105.169 29.9436 105.16 30.2274C105.168 30.5938 105.07 30.9547 104.878 31.2666C104.685 31.5443 104.419 31.7633 104.11 31.8991H104.143ZM87.7421 33.232V35.8865H86.6125V33.2094L83.5627 28.2393H84.6923L87.1547 32.2945L89.6737 28.2393H90.8033L87.7421 33.232ZM79.0896 35.0167C79.5796 35.0506 80.0692 34.9448 80.5016 34.7118C80.6555 34.6024 80.7797 34.4562 80.8625 34.2865C80.9454 34.1168 80.9844 33.929 80.976 33.7403C80.976 32.8819 80.351 32.4526 79.1009 32.4526H76.5707V35.0167H79.0896ZM76.5594 29.0978V31.5603H78.8185C79.2735 31.5883 79.7263 31.478 80.1175 31.244C80.2622 31.1393 80.3799 31.0017 80.4611 30.8427C80.5423 30.6836 80.5847 30.5076 80.5847 30.329C80.5847 30.1504 80.5423 29.9744 80.4611 29.8154C80.3799 29.6563 80.2622 29.5188 80.1175 29.4141C79.7263 29.18 79.2735 29.0697 78.8185 29.0978H76.5594ZM80.6371 31.9104C81.0517 32.016 81.4205 32.2539 81.6876 32.5882C81.9521 32.9429 82.0876 33.3772 82.0717 33.8194C82.0855 34.1185 82.0233 34.4163 81.891 34.6849C81.7586 34.9535 81.5604 35.1843 81.3148 35.3556C80.6574 35.7571 79.8923 35.9464 79.1235 35.8978H75.4524V28.2393H78.9089C79.6295 28.1939 80.3459 28.3799 80.9534 28.7702C81.1857 28.9337 81.3735 29.1526 81.4997 29.4071C81.626 29.6615 81.6867 29.9435 81.6763 30.2274C81.6845 30.5938 81.5864 30.9547 81.3939 31.2666C81.2043 31.5427 80.9425 31.7615 80.6371 31.8991V31.9104ZM62.4962 34.949C63.0632 34.9607 63.6247 34.8368 64.1341 34.5875C64.6028 34.3676 64.9958 34.0139 65.2637 33.5709C65.5168 33.1065 65.6494 32.5861 65.6494 32.0573C65.6494 31.5284 65.5168 31.008 65.2637 30.5436C64.9958 30.1006 64.6028 29.7469 64.1341 29.527C63.6247 29.2777 63.0632 29.1538 62.4962 29.1656H60.4178V34.949H62.4962ZM59.3221 28.1715H62.564C63.3154 28.1573 64.0592 28.3238 64.7328 28.6573C65.3417 28.9595 65.8513 29.4299 66.2012 30.0127C66.5435 30.6256 66.7232 31.3158 66.7232 32.0177C66.7232 32.7197 66.5435 33.4099 66.2012 34.0227C65.8513 34.6056 65.3417 35.0759 64.7328 35.3782C64.0592 35.7116 63.3154 35.8782 62.564 35.8639H59.3221V28.1715ZM56.3965 34.949V35.9091H50.8164V28.2393H56.2497V29.1995H51.9234V31.5151H55.7866V32.4526H51.9234V34.9377L56.3965 34.949ZM44.649 32.6333C45.2161 32.6711 45.7788 32.5114 46.2417 32.1815C46.4274 32.0244 46.574 31.8263 46.6701 31.6029C46.7662 31.3794 46.809 31.1367 46.7952 30.8938C46.809 30.6526 46.7661 30.4115 46.67 30.1899C46.5738 29.9682 46.4272 29.7722 46.2417 29.6174C45.7766 29.2932 45.2146 29.1377 44.649 29.1769H42.7852V32.6446L44.649 32.6333ZM46.8291 35.9091L45.1686 33.5483H44.6829H42.7852V35.8865H41.6556V28.2393H44.7168C45.5594 28.1913 46.3919 28.4434 47.0663 28.9509C47.3503 29.191 47.5754 29.493 47.7242 29.8338C47.8731 30.1745 47.9417 30.5449 47.9247 30.9164C47.9397 31.4546 47.7857 31.9839 47.4842 32.43C47.1747 32.8611 46.7353 33.1817 46.2304 33.345L48.0603 35.9317L46.8291 35.9091ZM38.7639 34.949V35.9091H33.1839V28.2393H38.6171V29.1995H34.2795V31.5151H38.1427V32.4526H34.2795V34.9377L38.7639 34.949ZM30.6988 28.1715L28.1234 35.8639H26.9938L24.8928 29.7191L22.7918 35.8639H21.6622L19.0303 28.2393H20.1599L22.2383 34.452L24.3845 28.2393H25.4011L27.5247 34.531L29.6596 28.2393L30.6988 28.1715ZM13.1679 35.0167C13.7011 35.0253 14.2272 34.8928 14.6928 34.6327C15.136 34.3811 15.503 34.0142 15.7546 33.5709C16.0117 33.1078 16.1467 32.5869 16.1467 32.0573C16.1467 31.5276 16.0117 31.0067 15.7546 30.5436C15.503 30.1004 15.136 29.7335 14.6928 29.4818C14.2272 29.2217 13.7011 29.0892 13.1679 29.0978C12.6311 29.0899 12.1016 29.2223 11.6316 29.4818C11.1627 29.7225 10.7712 30.0905 10.5021 30.5436C10.2449 31.0067 10.11 31.5276 10.11 32.0573C10.11 32.5869 10.2449 33.1078 10.5021 33.5709C10.7712 34.024 11.1627 34.3921 11.6316 34.6327C12.1016 34.8922 12.6311 35.0246 13.1679 35.0167V35.0167ZM13.1679 35.9995C12.4357 36.0115 11.7125 35.8366 11.0669 35.4912C10.4572 35.1641 9.94917 34.6756 9.59842 34.0792C9.24877 33.4668 9.06486 32.7738 9.06486 32.0686C9.06486 31.3634 9.24877 30.6703 9.59842 30.0579C9.94917 29.4615 10.4572 28.9731 11.0669 28.646C11.7134 28.3075 12.4324 28.1307 13.1622 28.1307C13.892 28.1307 14.611 28.3075 15.2576 28.646C15.8638 28.9738 16.368 29.4623 16.7147 30.0579C17.06 30.6738 17.2414 31.3681 17.2414 32.0742C17.2414 32.7803 17.06 33.4746 16.7147 34.0905C16.368 34.6861 15.8638 35.1746 15.2576 35.5025C14.6125 35.8352 13.8934 35.9984 13.1679 35.9769V35.9995ZM3.5891 32.6108C4.15603 32.6466 4.71814 32.4871 5.1818 32.1589C5.3565 31.9942 5.49568 31.7955 5.59082 31.575C5.68596 31.3546 5.73503 31.117 5.73503 30.8769C5.73503 30.6367 5.68596 30.3992 5.59082 30.1787C5.49568 29.9582 5.3565 29.7595 5.1818 29.5948C4.71669 29.2706 4.1547 29.1151 3.5891 29.1543H1.71401V32.6108H3.5891ZM3.5891 28.2054C4.43177 28.1574 5.26421 28.4095 5.93861 28.9171C6.20814 29.1686 6.42306 29.4729 6.57 29.811C6.71694 30.1491 6.79276 30.5138 6.79276 30.8825C6.79276 31.2512 6.71694 31.6159 6.57 31.954C6.42306 32.2921 6.20814 32.5964 5.93861 32.848C5.26421 33.3555 4.43177 33.6076 3.5891 33.5596H1.71401V35.8865H0.663513V28.2393L3.5891 28.2054Z" fill="#A3A4A7"/>
</svg>
