<svg width="521" height="62" viewBox="0 0 521 62" fill="none" xmlns="http://www.w3.org/2000/svg">
<path d="M19.7289 61.2303H0V5.17957L19.7289 35.6254V61.2303ZM77.8195 5.30135V61.2303H57.847V35.8385L77.8195 5.30135Z" fill="#F8F8F8"/>
<path d="M77.8196 0.337891L38.9099 59.4636L0.000144958 0.337891H18.359L38.5141 31.6971L58.5474 0.337891H77.8196Z" fill="#F8F8F8"/>
<path d="M101.993 61.3513H80.59L115.329 0.337891H121.692L156.43 61.3513H134.997L119.652 32.2451L118.556 29.9312L118.495 30.053L101.993 61.3513Z" fill="#F8F8F8"/>
<path d="M159.171 1.43469H179.083V47.2556H210.716V61.352H159.171V1.43469Z" fill="#F8F8F8"/>
<path d="M359.778 1.43394V61.2904H353.415L311.948 30.9359V61.3513H292.036V0.337891H298.399L339.867 31.3926V1.43394H359.778Z" fill="#F8F8F8"/>
<path d="M419.392 61.352L390.316 31.4847V61.352H370.404V1.43469H390.316V28.5619L415.586 1.43469H438.725L412.45 29.932L443.017 61.352H419.392Z" fill="#F8F8F8"/>
<path d="M234.859 61.3513H213.426L248.195 0.337891H254.558L289.297 61.3513H267.863L252.518 32.2451L251.422 29.9312L251.361 30.053L234.859 61.3513Z" fill="#F8F8F8"/>
<path d="M465.973 61.3513H444.539L479.308 0.337891H485.671L520.41 61.3513H498.976L483.631 32.2451L482.535 29.9312L482.474 30.053L465.973 61.3513Z" fill="#F8F8F8"/>
</svg>
