<svg width="201" height="28" viewBox="0 0 201 28" fill="none" xmlns="http://www.w3.org/2000/svg">
<path d="M59.429 17.1726H53.8651V1.36523L59.429 9.9515V17.1726ZM75.8116 1.39958V17.1726H70.179V10.0116L75.8116 1.39958Z" fill="white"/>
<path d="M75.8116 0L64.8384 16.6745L53.8651 0H59.0426L64.7267 8.84386L70.3765 0H75.8116Z" fill="white"/>
<path d="M82.6291 17.2069H76.593L86.3899 0H88.1844L97.9814 17.2069H91.9366L87.6092 8.99841L87.3001 8.34585L87.2829 8.3802L82.6291 17.2069Z" fill="white"/>
<path d="M98.7542 0.309082H104.37V13.2314H113.291V17.2069H98.7542V0.309082Z" fill="white"/>
<path d="M155.329 0.309106V17.1897H153.535L141.84 8.6292V17.2069H136.225V0H138.019L149.714 8.758V0.309106H155.329Z" fill="white"/>
<path d="M172.141 17.2069L163.941 8.78373V17.2069H158.326V0.309082H163.941V7.95945L171.068 0.309082H177.593L170.183 8.34583L178.804 17.2069H172.141Z" fill="white"/>
<path d="M120.1 17.2069H114.055L123.86 0H125.655L135.452 17.2069H129.407L125.08 8.99841L124.771 8.34585L124.753 8.3802L120.1 17.2069Z" fill="white"/>
<path d="M185.278 17.2069H179.233L189.039 0H190.833L200.63 17.2069H194.586L190.258 8.99841L189.949 8.34585L189.932 8.3802L185.278 17.2069Z" fill="white"/>
<path d="M197.797 22.1613H195.788V21.4658H200.63V22.1956H198.621V27.3474H197.762L197.797 22.1613ZM191.254 22.1613V24.1962H194.191V24.9003H191.245V27.2615H190.387V21.4658H194.517V22.1956L191.254 22.1613ZM188.197 26.5574V27.2873H183.956V21.4658H188.086V22.1956H184.797V23.9558H187.734V24.6685H184.797V26.5574H188.197ZM181.328 21.4057V27.2529H180.641L177.13 22.8911V27.2529H176.271V21.4658H176.958L180.495 25.7589V21.4658L181.328 21.4057ZM171.944 27.3216C171.512 27.322 171.082 27.2524 170.673 27.1156C170.318 27.0094 169.99 26.8278 169.711 26.5832L170.02 25.9306C170.272 26.1477 170.564 26.3139 170.879 26.4201C171.223 26.5449 171.586 26.6088 171.952 26.609C172.332 26.6353 172.712 26.5487 173.043 26.36C173.154 26.2917 173.246 26.1956 173.309 26.0813C173.372 25.9669 173.405 25.8381 173.403 25.7074C173.407 25.6165 173.391 25.5259 173.357 25.4415C173.323 25.3572 173.271 25.281 173.206 25.218C173.068 25.0871 172.904 24.9875 172.725 24.9261C172.53 24.8574 172.258 24.783 171.909 24.7028C171.548 24.6205 171.192 24.5144 170.844 24.3851C170.575 24.2829 170.336 24.1146 170.149 23.8957C169.952 23.6536 169.849 23.349 169.857 23.0371C169.851 22.7322 169.938 22.4328 170.106 22.1784C170.293 21.9112 170.552 21.7028 170.853 21.5774C171.248 21.4163 171.672 21.3402 172.098 21.3542C172.443 21.355 172.787 21.4012 173.12 21.4915C173.426 21.5693 173.717 21.7001 173.978 21.8779L173.704 22.5477C173.461 22.3938 173.198 22.2753 172.922 22.1956C172.644 22.1133 172.354 22.0728 172.064 22.0754C171.691 22.0488 171.319 22.1388 170.999 22.333C170.889 22.4063 170.799 22.506 170.738 22.623C170.676 22.74 170.645 22.8706 170.647 23.0027C170.643 23.0937 170.658 23.1845 170.693 23.2689C170.727 23.3534 170.778 23.4295 170.844 23.4921C170.988 23.6232 171.158 23.7227 171.342 23.7841C171.607 23.873 171.877 23.9476 172.15 24.0073C172.511 24.0889 172.867 24.1951 173.214 24.325C173.478 24.4285 173.714 24.5933 173.901 24.8058C174.1 25.0468 174.204 25.3522 174.193 25.6645C174.2 25.9694 174.113 26.269 173.944 26.5231C173.753 26.7929 173.487 27.0016 173.18 27.1241C172.79 27.2799 172.372 27.3558 171.952 27.3474L171.944 27.3216ZM165.186 27.3216C164.853 27.341 164.519 27.2915 164.206 27.1763C163.893 27.061 163.607 26.8825 163.366 26.6519C163.136 26.3901 162.96 26.0854 162.848 25.7554C162.736 25.4253 162.69 25.0763 162.713 24.7286V21.4658H163.572V24.7543C163.572 26.0079 164.121 26.6347 165.22 26.6347C165.446 26.6494 165.673 26.6156 165.884 26.5356C166.096 26.4557 166.288 26.3314 166.448 26.1711C166.764 25.7695 166.917 25.2637 166.878 24.7543V21.4658H167.685V24.7887C167.709 25.1365 167.663 25.4856 167.551 25.8157C167.439 26.1458 167.263 26.4505 167.032 26.712C166.786 26.9383 166.496 27.1114 166.179 27.2207C165.863 27.33 165.528 27.3732 165.195 27.3474L165.186 27.3216ZM158.077 24.7457C158.508 24.7744 158.936 24.6531 159.287 24.4023C159.428 24.2829 159.54 24.1323 159.613 23.9624C159.686 23.7926 159.719 23.6081 159.708 23.4235C159.719 23.2401 159.686 23.0569 159.613 22.8884C159.54 22.7199 159.428 22.5709 159.287 22.4532C158.934 22.2068 158.507 22.0886 158.077 22.1183H156.66V24.7543L158.077 24.7457ZM159.734 27.2358L158.472 25.4412H156.66V27.2186H155.801V21.4658H158.085C158.726 21.4293 159.359 21.6209 159.871 22.0067C160.087 22.1892 160.258 22.4188 160.371 22.6778C160.484 22.9368 160.537 23.2184 160.524 23.5007C160.535 23.9098 160.418 24.3122 160.189 24.6513C159.954 24.9789 159.62 25.2227 159.236 25.3468L160.627 27.313L159.734 27.2358ZM150.581 26.6175C150.986 26.624 151.386 26.5233 151.74 26.3256C152.077 26.1344 152.356 25.8555 152.547 25.5185C152.743 25.1665 152.845 24.7706 152.845 24.3679C152.845 23.9653 152.743 23.5694 152.547 23.2174C152.356 22.8804 152.077 22.6015 151.74 22.4103C151.386 22.2126 150.986 22.1118 150.581 22.1183C150.173 22.1124 149.77 22.213 149.413 22.4103C149.057 22.5932 148.759 22.8729 148.555 23.2174C148.359 23.5694 148.256 23.9653 148.256 24.3679C148.256 24.7706 148.359 25.1665 148.555 25.5185C148.759 25.863 149.057 26.1427 149.413 26.3256C149.77 26.5229 150.173 26.6235 150.581 26.6175ZM150.581 27.3646C150.024 27.3737 149.475 27.2407 148.984 26.9782C148.52 26.7295 148.134 26.3582 147.868 25.9049C147.602 25.4394 147.462 24.9126 147.462 24.3765C147.462 23.8405 147.602 23.3137 147.868 22.8482C148.134 22.3948 148.52 22.0235 148.984 21.7749C149.475 21.5176 150.022 21.3832 150.577 21.3832C151.131 21.3832 151.678 21.5176 152.169 21.7749C152.63 22.0241 153.013 22.3954 153.277 22.8482C153.539 23.3164 153.677 23.8441 153.677 24.3808C153.677 24.9176 153.539 25.4453 153.277 25.9135C153.013 26.3662 152.63 26.7376 152.169 26.9868C151.679 27.2397 151.132 27.3638 150.581 27.3474V27.3646ZM142.218 21.4658H143.076V26.6175H146.245V27.3474H142.218V21.4658ZM139.994 26.6175V27.3474H135.752V21.4658H139.882V22.1956H136.594V23.9558H139.53V24.6685H136.594V26.5574L139.994 26.6175ZM131.322 26.6175C131.694 26.6433 132.066 26.5629 132.395 26.3857C132.512 26.3026 132.607 26.1915 132.67 26.0625C132.733 25.9335 132.762 25.7907 132.756 25.6473C132.756 24.9947 132.281 24.6685 131.33 24.6685H129.424V26.6175H131.322ZM129.424 22.1098V23.9816H131.142C131.487 24.0029 131.832 23.9191 132.129 23.7411C132.239 23.6615 132.328 23.557 132.39 23.4361C132.452 23.3152 132.484 23.1814 132.484 23.0457C132.484 22.9099 132.452 22.7761 132.39 22.6552C132.328 22.5343 132.239 22.4298 132.129 22.3502C131.832 22.1722 131.487 22.0884 131.142 22.1098H129.424ZM132.524 24.2477C132.839 24.328 133.119 24.5089 133.322 24.7629C133.523 25.0325 133.626 25.3627 133.614 25.6988C133.625 25.9262 133.578 26.1525 133.477 26.3567C133.376 26.5609 133.226 26.7363 133.039 26.8666C132.539 27.1718 131.958 27.3157 131.373 27.2787H128.566V21.4658H131.193C131.741 21.4313 132.285 21.5727 132.747 21.8693C132.923 21.9942 133.066 22.1607 133.161 22.354C133.257 22.5473 133.304 22.7613 133.297 22.977C133.303 23.2555 133.228 23.5298 133.082 23.7669C132.936 23.978 132.733 24.1445 132.498 24.2477H132.524ZM120.057 25.2609V27.2787H119.198V25.2437L116.88 21.4658H117.738L119.61 24.5483L121.525 21.4658H122.384L120.057 25.2609ZM113.48 26.6175C113.852 26.6433 114.224 26.5629 114.553 26.3857C114.67 26.3026 114.764 26.1915 114.827 26.0625C114.89 25.9335 114.92 25.7907 114.913 25.6473C114.913 24.9947 114.438 24.6685 113.488 24.6685H111.565V26.6175H113.48ZM111.556 22.1183V23.9902H113.274C113.619 24.0115 113.964 23.9277 114.261 23.7497C114.371 23.6701 114.46 23.5656 114.522 23.4447C114.584 23.3238 114.616 23.19 114.616 23.0542C114.616 22.9185 114.584 22.7847 114.522 22.6638C114.46 22.5429 114.371 22.4384 114.261 22.3588C113.964 22.1808 113.619 22.097 113.274 22.1183H111.556ZM114.656 24.2563C114.971 24.3366 115.251 24.5174 115.454 24.7715C115.655 25.0411 115.758 25.3713 115.746 25.7074C115.757 25.9348 115.71 26.1611 115.609 26.3653C115.508 26.5695 115.358 26.7449 115.171 26.8751C114.671 27.1803 114.09 27.3242 113.505 27.2873H110.715V21.4658H113.342C113.89 21.4313 114.435 21.5727 114.896 21.8693C115.073 21.9936 115.216 22.16 115.312 22.3534C115.408 22.5469 115.454 22.7612 115.446 22.977C115.452 23.2555 115.378 23.5298 115.231 23.7669C115.087 23.9768 114.888 24.1431 114.656 24.2477V24.2563ZM100.866 26.566C101.297 26.575 101.724 26.4808 102.111 26.2913C102.468 26.1241 102.766 25.8552 102.97 25.5185C103.162 25.1655 103.263 24.7699 103.263 24.3679C103.263 23.9659 103.162 23.5704 102.97 23.2174C102.766 22.8806 102.468 22.6117 102.111 22.4446C101.724 22.2551 101.297 22.1609 100.866 22.1699H99.2865V26.566H100.866ZM98.4536 21.4143H100.918C101.489 21.4034 102.054 21.53 102.566 21.7835C103.029 22.0132 103.417 22.3708 103.683 22.8138C103.943 23.2797 104.079 23.8043 104.079 24.3379C104.079 24.8715 103.943 25.3961 103.683 25.862C103.417 26.305 103.029 26.6625 102.566 26.8923C102.054 27.1458 101.489 27.2724 100.918 27.2615H98.4536V21.4143ZM96.2298 26.566V27.2959H91.9882V21.4658H96.1181V22.1956H92.8296V23.9558H95.7661V24.6685H92.8296V26.5574L96.2298 26.566ZM87.3 24.8058C87.7311 24.8345 88.1589 24.7132 88.5107 24.4624C88.6519 24.343 88.7634 24.1924 88.8364 24.0225C88.9094 23.8527 88.9419 23.6682 88.9314 23.4836C88.9419 23.3002 88.9093 23.117 88.8363 22.9485C88.7632 22.78 88.6517 22.631 88.5107 22.5133C88.1572 22.2669 87.73 22.1487 87.3 22.1784H85.8833V24.8144L87.3 24.8058ZM88.9572 27.2959L87.695 25.5013H85.8833V27.2787H85.0247V21.4658H87.3516C87.9921 21.4293 88.6249 21.6209 89.1375 22.0067C89.3534 22.1892 89.5245 22.4188 89.6376 22.6778C89.7508 22.9368 89.8029 23.2184 89.7901 23.5007C89.8014 23.9098 89.6843 24.3122 89.4552 24.6513C89.2199 24.9789 88.8859 25.2227 88.5021 25.3468L89.8931 27.313L88.9572 27.2959ZM82.8266 26.566V27.2959H78.585V21.4658H82.715V22.1956H79.4179V23.9558H82.3544V24.6685H79.4179V26.5574L82.8266 26.566ZM76.696 21.4143L74.7383 27.2615H73.8797L72.2827 22.5906L70.6856 27.2615H69.827L67.8264 21.4658H68.685L70.2649 26.1882L71.8963 21.4658H72.669L74.2833 26.2483L75.9061 21.4658L76.696 21.4143ZM63.3701 26.6175C63.7755 26.624 64.1753 26.5233 64.5293 26.3256C64.8662 26.1344 65.1451 25.8555 65.3364 25.5185C65.5318 25.1665 65.6344 24.7706 65.6344 24.3679C65.6344 23.9653 65.5318 23.5694 65.3364 23.2174C65.1451 22.8804 64.8662 22.6015 64.5293 22.4103C64.1753 22.2126 63.7755 22.1118 63.3701 22.1183C62.9621 22.1124 62.5596 22.213 62.2024 22.4103C61.8459 22.5932 61.5483 22.8729 61.3438 23.2174C61.1483 23.5694 61.0457 23.9653 61.0457 24.3679C61.0457 24.7706 61.1483 25.1665 61.3438 25.5185C61.5483 25.863 61.8459 26.1427 62.2024 26.3256C62.5596 26.5229 62.9621 26.6235 63.3701 26.6175ZM63.3701 27.3646C62.8136 27.3737 62.2639 27.2407 61.7731 26.9782C61.3096 26.7295 60.9235 26.3582 60.6569 25.9049C60.3911 25.4394 60.2513 24.9126 60.2513 24.3765C60.2513 23.8405 60.3911 23.3137 60.6569 22.8482C60.9235 22.3948 61.3096 22.0235 61.7731 21.7749C62.2646 21.5176 62.8111 21.3832 63.3658 21.3832C63.9206 21.3832 64.4671 21.5176 64.9586 21.7749C65.4194 22.0241 65.8026 22.3954 66.0662 22.8482C66.3287 23.3164 66.4665 23.8441 66.4665 24.3808C66.4665 24.9176 66.3287 25.4453 66.0662 25.9135C65.8026 26.3662 65.4194 26.7376 64.9586 26.9868C64.4682 27.2397 63.9216 27.3638 63.3701 27.3474V27.3646ZM56.089 24.7887C56.5199 24.8159 56.9472 24.6947 57.2996 24.4452C57.4324 24.32 57.5382 24.169 57.6105 24.0014C57.6829 23.8338 57.7202 23.6532 57.7202 23.4707C57.7202 23.2882 57.6829 23.1076 57.6105 22.94C57.5382 22.7724 57.4324 22.6214 57.2996 22.4961C56.9461 22.2497 56.5189 22.1315 56.089 22.1613H54.6636V24.7887H56.089ZM56.089 21.44C56.7295 21.4035 57.3623 21.5952 57.8749 21.981C58.0798 22.1722 58.2431 22.4035 58.3548 22.6605C58.4665 22.9175 58.5242 23.1947 58.5242 23.475C58.5242 23.7552 58.4665 24.0325 58.3548 24.2895C58.2431 24.5465 58.0798 24.7778 57.8749 24.969C57.3623 25.3548 56.7295 25.5464 56.089 25.5099H54.6636V27.2787H53.8651V21.4658L56.089 21.44Z" fill="white"/>
<path d="M20.9883 27.3472L3.42078 0.0600587H11.3888C11.8776 0.059928 12.3585 0.182495 12.7875 0.416522C13.2166 0.650549 13.58 0.988544 13.8445 1.39952L21.6666 13.5491L29.4801 1.39952C29.7446 0.988544 30.108 0.650549 30.5371 0.416522C30.9661 0.182495 31.4471 0.059928 31.9358 0.0600587H39.9038L22.3363 27.3472H20.9883Z" fill="white"/>
<path d="M16.884 20.9762L3.42078 0.0600587H11.3888C11.8776 0.059928 12.3585 0.182495 12.7875 0.416522C13.2166 0.650549 13.58 0.988544 13.8445 1.39952L21.6666 13.5491L16.884 20.9762Z" fill="white"/>
<path d="M42.6944 27.3471L35.688 16.4512L28.7159 27.3471H42.6944Z" fill="white"/>
<path d="M14.6087 27.3471L7.59371 16.4512L0.630249 27.3471H14.6087Z" fill="white"/>
</svg>
