<svg width="25" height="20" viewBox="0 0 25 20" fill="none" xmlns="http://www.w3.org/2000/svg">
<path opacity="0.9" d="M9.76225 19.8146C5.75664 19.8146 2.59075 19.1148 1.0761 17.8949L1.04662 17.8711L1.01989 17.8444C0.660085 17.4844 0.542165 17.0122 0.696706 16.5489L0.710805 16.5104C0.898305 16.0415 1.35772 15.7258 1.85558 15.7229C2.88024 15.7051 3.77672 15.583 4.59026 15.3459C3.29259 14.7424 2.39116 13.6974 1.85485 12.1849C1.67449 11.7133 1.83013 11.1903 2.24578 10.8785C2.34832 10.8014 2.46422 10.7432 2.5869 10.7042C1.86583 9.87178 1.33318 8.92458 1.0349 7.92281L1.02556 7.89168L1.01915 7.85982C0.917897 7.35317 1.1444 6.83223 1.5595 6.60793C1.73363 6.50796 1.92278 6.45614 2.11266 6.45174C1.90795 6.01082 1.75908 5.55819 1.67083 5.10281C1.42583 3.84084 1.62798 2.57577 2.27141 1.34274L2.42028 1.04501C2.53948 0.806789 2.76726 0.639431 3.02983 0.596768C3.29241 0.554287 3.56157 0.641079 3.74962 0.829128L4.0208 1.10067C6.16313 3.34664 8.08207 4.41232 11.3998 5.14144C11.5479 3.86794 12.0985 2.68417 12.9867 1.75253C14.0438 0.644009 15.4554 0.0220002 16.9614 0.000759966H16.9713C18.0701 0.000759966 19.4331 0.628079 20.2575 1.07046C20.9646 0.839016 21.8166 0.480679 22.7007 0.101834C23.1143 -0.0922575 23.6242 -0.0034515 23.9494 0.321743C24.2682 0.64053 24.3567 1.09005 24.1875 1.52694C24.1232 1.70584 24.0503 1.88143 23.9692 2.05319C24.0902 2.10867 24.201 2.18392 24.2946 2.27749C24.5775 2.56039 24.6954 3.00314 24.5949 3.4056L24.5841 3.44387C24.2453 4.53554 23.5946 5.4247 22.734 5.98281C22.5902 13.6368 16.8265 19.8146 9.76225 19.8146ZM2.42577 17.111C3.85307 17.9185 6.5731 18.4071 9.76225 18.4071C12.8283 18.4071 15.7218 17.0907 17.9093 14.7004C20.1148 12.2906 21.3294 9.09047 21.3294 5.68947V5.65121C21.3294 5.34322 21.4989 5.06216 21.7718 4.9175C22.3253 4.62435 22.7735 4.12502 23.065 3.48653C22.7644 3.53396 22.4588 3.41329 22.2715 3.16171C22.0537 2.86929 22.0514 2.47433 22.2654 2.17935C22.3809 2.02004 22.4857 1.85433 22.5791 1.68295C21.8157 2.00357 21.0908 2.29104 20.4615 2.48202C20.2328 2.55123 19.9779 2.52413 19.769 2.4075C18.6485 1.78329 17.605 1.41012 16.9759 1.40829C14.6543 1.44381 12.7666 3.43215 12.7666 5.84292C12.7666 6.09212 12.656 6.32577 12.4636 6.48415C12.271 6.64235 12.0205 6.70571 11.7759 6.65737C7.95042 5.90371 5.68358 4.77358 3.32628 2.40475C2.98845 3.21426 2.89617 4.02962 3.05236 4.83474C3.21074 5.65029 3.63207 6.46749 4.27092 7.1979C4.51372 7.47512 4.54594 7.87172 4.35112 8.18465C4.15703 8.49648 3.78807 8.64223 3.4334 8.5472C3.15618 8.47286 2.90129 8.37526 2.65959 8.24984C3.15196 9.31935 3.99883 10.3085 5.0634 11.038C5.37193 11.2495 5.50084 11.6437 5.37706 11.9967C5.2531 12.3503 4.90685 12.5779 4.53258 12.5501C4.1248 12.5198 3.76354 12.4424 3.43102 12.3118C4.02794 13.5275 4.98174 14.1964 6.45116 14.452C6.80107 14.513 7.07353 14.7893 7.12919 15.1395C7.18504 15.4898 7.01164 15.837 6.69798 16.0034C5.44554 16.6674 4.07665 17.0237 2.42577 17.111Z" fill="white"/>
</svg>
