<svg width="264" height="36" viewBox="0 0 264 36" fill="none" xmlns="http://www.w3.org/2000/svg">
<path d="M77.3529 22.5915H70.0333V1.79614L77.3529 13.0918V22.5915ZM98.9051 1.84133V22.5915H91.4951V13.1709L98.9051 1.84133Z" fill="#00902A"/>
<path d="M98.9051 0L84.4692 21.9363L70.0333 0H76.8446L84.3223 11.6346L91.7549 0H98.9051Z" fill="#00902A"/>
<path d="M107.874 22.6366H99.9331L112.822 0H115.182L128.071 22.6366H120.119L114.425 11.8379L114.019 10.9794L113.996 11.0246L107.874 22.6366Z" fill="#00902A"/>
<path d="M129.087 0.406738H136.475V17.4068H148.211V22.6367H129.087V0.406738Z" fill="#00902A"/>
<path d="M203.515 0.406645V22.614H201.154L185.769 11.3522V22.6366H178.382V0H180.743L196.127 11.5216V0.406645H203.515Z" fill="#00902A"/>
<path d="M225.632 22.6367L214.844 11.5556V22.6367H207.457V0.406738H214.844V10.4712L224.22 0.406738H232.804L223.056 10.9795L234.397 22.6367H225.632Z" fill="#00902A"/>
<path d="M157.169 22.6366H149.216L162.116 0H164.477L177.365 22.6366H169.413L163.72 11.8379L163.313 10.9794L163.291 11.0246L157.169 22.6366Z" fill="#00902A"/>
<path d="M242.914 22.6366H234.962L247.862 0H250.223L263.111 22.6366H255.159L249.466 11.8379L249.059 10.9794L249.036 11.0246L242.914 22.6366Z" fill="#00902A"/>
<path d="M259.383 29.1543H256.74V28.2393H263.111V29.1995H260.468V35.9769H259.338L259.383 29.1543ZM250.776 29.1543V31.8314H254.639V32.7576H250.765V35.8639H249.635V28.2393H255.068V29.1995L250.776 29.1543ZM246.755 34.9377V35.8978H241.174V28.2393H246.608V29.1995H242.281V31.5151H246.145V32.4526H242.281V34.9377H246.755ZM237.718 28.1602V35.8526H236.814L232.194 30.1144V35.8526H231.065V28.2393H231.969L236.622 33.8872V28.2393L237.718 28.1602ZM225.372 35.943C224.804 35.9434 224.239 35.8519 223.7 35.6719C223.233 35.5322 222.801 35.2933 222.435 34.9716L222.842 34.1131C223.173 34.3986 223.557 34.6172 223.971 34.7569C224.424 34.9211 224.902 35.0052 225.383 35.0054C225.883 35.0401 226.382 34.9261 226.818 34.6779C226.964 34.588 227.085 34.4617 227.168 34.3112C227.251 34.1608 227.294 33.9913 227.292 33.8194C227.297 33.6998 227.276 33.5806 227.231 33.4696C227.186 33.3587 227.119 33.2584 227.032 33.1755C226.852 33.0034 226.636 32.8723 226.4 32.7915C226.144 32.7011 225.786 32.6032 225.327 32.4978C224.851 32.3896 224.383 32.2499 223.926 32.0799C223.572 31.9453 223.257 31.7239 223.011 31.436C222.752 31.1175 222.616 30.7168 222.627 30.3064C222.619 29.9054 222.733 29.5114 222.955 29.1769C223.2 28.8253 223.541 28.5511 223.937 28.3862C224.456 28.1742 225.015 28.0741 225.575 28.0925C226.029 28.0936 226.481 28.1544 226.919 28.2732C227.323 28.3755 227.705 28.5475 228.049 28.7815L227.687 29.6626C227.369 29.4602 227.022 29.3042 226.66 29.1995C226.293 29.0911 225.912 29.0378 225.53 29.0413C225.039 29.0063 224.55 29.1247 224.129 29.3802C223.985 29.4766 223.866 29.6077 223.785 29.7617C223.704 29.9156 223.663 30.0874 223.666 30.2612C223.661 30.3809 223.681 30.5003 223.726 30.6114C223.771 30.7225 223.839 30.8227 223.926 30.9051C224.115 31.0775 224.338 31.2084 224.581 31.2892C224.929 31.4062 225.284 31.5042 225.643 31.5828C226.119 31.6902 226.587 31.8298 227.044 32.0008C227.391 32.1369 227.7 32.3538 227.947 32.6333C228.209 32.9503 228.345 33.3521 228.331 33.7629C228.34 34.1641 228.226 34.5582 228.004 34.8925C227.752 35.2474 227.403 35.522 226.998 35.6832C226.485 35.8881 225.936 35.9879 225.383 35.9769L225.372 35.943ZM216.482 35.943C216.044 35.9684 215.605 35.9033 215.193 35.7517C214.781 35.6002 214.405 35.3653 214.087 35.0619C213.785 34.7176 213.553 34.3167 213.406 33.8825C213.258 33.4483 213.198 32.9892 213.229 32.5317V28.2393H214.359V32.5656C214.359 34.2147 215.081 35.0393 216.527 35.0393C216.824 35.0586 217.122 35.0142 217.401 34.909C217.679 34.8038 217.932 34.6403 218.143 34.4294C218.558 33.901 218.76 33.2357 218.707 32.5656V28.2393H219.769V32.6108C219.8 33.0683 219.741 33.5276 219.593 33.9619C219.446 34.3962 219.214 34.797 218.911 35.141C218.587 35.4387 218.205 35.6665 217.789 35.8103C217.373 35.9541 216.932 36.0108 216.493 35.9769L216.482 35.943ZM207.129 32.5543C207.696 32.592 208.259 32.4324 208.722 32.1024C208.908 31.9453 209.054 31.7473 209.15 31.5238C209.246 31.3003 209.289 31.0576 209.275 30.8147C209.289 30.5735 209.246 30.3325 209.15 30.1108C209.054 29.8892 208.907 29.6931 208.722 29.5383C208.257 29.2141 207.695 29.0587 207.129 29.0978H205.265V32.5656L207.129 32.5543ZM209.309 35.83L207.649 33.4692H207.163H205.265V35.8074H204.136V28.2393H207.141C207.983 28.1913 208.816 28.4434 209.49 28.9509C209.774 29.191 209.999 29.493 210.148 29.8338C210.297 30.1745 210.365 30.5449 210.349 30.9164C210.364 31.4546 210.209 31.9839 209.908 32.43C209.598 32.8611 209.159 33.1817 208.654 33.345L210.484 35.9317L209.309 35.83ZM197.268 35.0167C197.801 35.0253 198.327 34.8928 198.793 34.6327C199.236 34.3811 199.603 34.0142 199.855 33.5709C200.112 33.1078 200.247 32.5869 200.247 32.0573C200.247 31.5276 200.112 31.0067 199.855 30.5436C199.603 30.1004 199.236 29.7335 198.793 29.4818C198.327 29.2217 197.801 29.0892 197.268 29.0978C196.731 29.0899 196.202 29.2223 195.732 29.4818C195.263 29.7225 194.871 30.0905 194.602 30.5436C194.345 31.0067 194.21 31.5276 194.21 32.0573C194.21 32.5869 194.345 33.1078 194.602 33.5709C194.871 34.024 195.263 34.3921 195.732 34.6327C196.202 34.8922 196.731 35.0246 197.268 35.0167ZM197.268 35.9995C196.536 36.0115 195.813 35.8366 195.167 35.4912C194.557 35.1641 194.049 34.6756 193.699 34.0792C193.349 33.4668 193.165 32.7738 193.165 32.0686C193.165 31.3634 193.349 30.6703 193.699 30.0579C194.049 29.4615 194.557 28.9731 195.167 28.646C195.814 28.3075 196.533 28.1307 197.262 28.1307C197.992 28.1307 198.711 28.3075 199.358 28.646C199.964 28.9738 200.468 29.4623 200.815 30.0579C201.16 30.6738 201.342 31.3681 201.342 32.0742C201.342 32.7803 201.16 33.4746 200.815 34.0905C200.468 34.6861 199.964 35.1746 199.358 35.5025C198.713 35.8352 197.994 35.9984 197.268 35.9769V35.9995ZM186.266 28.2393H187.396V35.0167H191.564V35.9769H186.266V28.2393ZM183.34 35.0167V35.9769H177.76V28.2393H183.194V29.1995H178.867V31.5151H182.731V32.4526H178.867V34.9377L183.34 35.0167ZM171.932 35.0167C172.422 35.0506 172.911 34.9448 173.344 34.7118C173.498 34.6024 173.622 34.4562 173.705 34.2865C173.788 34.1168 173.827 33.929 173.818 33.7403C173.818 32.8819 173.193 32.4526 171.943 32.4526H169.435V35.0167H171.932ZM169.435 29.0865V31.549H171.695C172.15 31.577 172.602 31.4668 172.994 31.2327C173.138 31.128 173.256 30.9904 173.337 30.8314C173.418 30.6723 173.461 30.4963 173.461 30.3177C173.461 30.1391 173.418 29.9631 173.337 29.8041C173.256 29.645 173.138 29.5075 172.994 29.4028C172.602 29.1687 172.15 29.0584 171.695 29.0865H169.435ZM173.513 31.8991C173.928 32.0047 174.297 32.2426 174.564 32.5769C174.828 32.9316 174.964 33.3659 174.948 33.8081C174.962 34.1072 174.899 34.405 174.767 34.6736C174.635 34.9422 174.437 35.173 174.191 35.3443C173.534 35.7458 172.768 35.9351 172 35.8865H168.306V28.2393H171.762C172.483 28.1939 173.199 28.3799 173.807 28.7702C174.038 28.9344 174.226 29.1535 174.352 29.4077C174.478 29.662 174.539 29.9436 174.53 30.2274C174.538 30.5938 174.44 30.9547 174.247 31.2666C174.055 31.5443 173.789 31.7633 173.479 31.8991H173.513ZM157.112 33.232V35.8865H155.982V33.2094L152.932 28.2393H154.062L156.524 32.2945L159.043 28.2393H160.173L157.112 33.232ZM148.459 35.0167C148.949 35.0506 149.439 34.9448 149.871 34.7118C150.025 34.6024 150.149 34.4562 150.232 34.2865C150.315 34.1168 150.354 33.929 150.346 33.7403C150.346 32.8819 149.721 32.4526 148.471 32.4526H145.94V35.0167H148.459ZM145.929 29.0978V31.5603H148.188C148.643 31.5883 149.096 31.478 149.487 31.244C149.632 31.1393 149.75 31.0017 149.831 30.8427C149.912 30.6836 149.954 30.5076 149.954 30.329C149.954 30.1504 149.912 29.9744 149.831 29.8154C149.75 29.6563 149.632 29.5188 149.487 29.4141C149.096 29.18 148.643 29.0697 148.188 29.0978H145.929ZM150.007 31.9104C150.421 32.016 150.79 32.2539 151.057 32.5882C151.322 32.9429 151.457 33.3772 151.441 33.8194C151.455 34.1185 151.393 34.4163 151.261 34.6849C151.128 34.9535 150.93 35.1843 150.685 35.3556C150.027 35.7571 149.262 35.9464 148.493 35.8978H144.822V28.2393H148.279C148.999 28.1939 149.716 28.3799 150.323 28.7702C150.555 28.9337 150.743 29.1526 150.869 29.4071C150.996 29.6615 151.056 29.9435 151.046 30.2274C151.054 30.5938 150.956 30.9547 150.764 31.2666C150.574 31.5427 150.312 31.7615 150.007 31.8991V31.9104ZM131.866 34.949C132.433 34.9607 132.994 34.8368 133.504 34.5875C133.973 34.3676 134.366 34.0139 134.633 33.5709C134.887 33.1065 135.019 32.5861 135.019 32.0573C135.019 31.5284 134.887 31.008 134.633 30.5436C134.366 30.1006 133.973 29.7469 133.504 29.527C132.994 29.2777 132.433 29.1538 131.866 29.1656H129.788V34.949H131.866ZM128.692 28.1715H131.934C132.685 28.1573 133.429 28.3238 134.103 28.6573C134.711 28.9595 135.221 29.4299 135.571 30.0127C135.913 30.6256 136.093 31.3158 136.093 32.0177C136.093 32.7197 135.913 33.4099 135.571 34.0227C135.221 34.6056 134.711 35.0759 134.103 35.3782C133.429 35.7116 132.685 35.8782 131.934 35.8639H128.692V28.1715ZM125.766 34.949V35.9091H120.186V28.2393H125.619V29.1995H121.293V31.5151H125.156V32.4526H121.293V34.9377L125.766 34.949ZM114.019 32.6333C114.586 32.6711 115.149 32.5114 115.611 32.1815C115.797 32.0244 115.944 31.8263 116.04 31.6029C116.136 31.3794 116.179 31.1367 116.165 30.8938C116.179 30.6526 116.136 30.4115 116.04 30.1899C115.944 29.9682 115.797 29.7722 115.611 29.6174C115.146 29.2932 114.584 29.1377 114.019 29.1769H112.155V32.6446L114.019 32.6333ZM116.199 35.9091L114.538 33.5483H114.053H112.155V35.8865H111.025V28.2393H114.087C114.929 28.1913 115.762 28.4434 116.436 28.9509C116.72 29.191 116.945 29.493 117.094 29.8338C117.243 30.1745 117.311 30.5449 117.294 30.9164C117.309 31.4546 117.155 31.9839 116.854 32.43C116.544 32.8611 116.105 33.1817 115.6 33.345L117.43 35.9317L116.199 35.9091ZM108.134 34.949V35.9091H102.554V28.2393H107.987V29.1995H103.649V31.5151H107.512V32.4526H103.649V34.9377L108.134 34.949ZM100.069 28.1715L97.4931 35.8639H96.3636L94.2626 29.7191L92.1615 35.8639H91.032L88.4001 28.2393H89.5297L91.6081 34.452L93.7542 28.2393H94.7709L96.8945 34.531L99.0293 28.2393L100.069 28.1715ZM82.5376 35.0167C83.0709 35.0253 83.5969 34.8928 84.0625 34.6327C84.5058 34.3811 84.8727 34.0142 85.1243 33.5709C85.3815 33.1078 85.5164 32.5869 85.5164 32.0573C85.5164 31.5276 85.3815 31.0067 85.1243 30.5436C84.8727 30.1004 84.5058 29.7335 84.0625 29.4818C83.5969 29.2217 83.0709 29.0892 82.5376 29.0978C82.0008 29.0899 81.4713 29.2223 81.0014 29.4818C80.5325 29.7225 80.141 30.0905 79.8718 30.5436C79.6147 31.0067 79.4797 31.5276 79.4797 32.0573C79.4797 32.5869 79.6147 33.1078 79.8718 33.5709C80.141 34.024 80.5325 34.3921 81.0014 34.6327C81.4713 34.8922 82.0008 35.0246 82.5376 35.0167ZM82.5376 35.9995C81.8054 36.0115 81.0823 35.8366 80.4366 35.4912C79.8269 35.1641 79.3189 34.6756 78.9682 34.0792C78.6185 33.4668 78.4346 32.7738 78.4346 32.0686C78.4346 31.3634 78.6185 30.6703 78.9682 30.0579C79.3189 29.4615 79.8269 28.9731 80.4366 28.646C81.0832 28.3075 81.8022 28.1307 82.532 28.1307C83.2618 28.1307 83.9807 28.3075 84.6273 28.646C85.2335 28.9738 85.7377 29.4623 86.0845 30.0579C86.4298 30.6738 86.6111 31.3681 86.6111 32.0742C86.6111 32.7803 86.4298 33.4746 86.0845 34.0905C85.7377 34.6861 85.2335 35.1746 84.6273 35.5025C83.9822 35.8352 83.2631 35.9984 82.5376 35.9769V35.9995ZM72.9588 32.6108C73.5258 32.6466 74.0879 32.4871 74.5515 32.1589C74.7262 31.9942 74.8654 31.7955 74.9606 31.575C75.0557 31.3546 75.1048 31.117 75.1048 30.8769C75.1048 30.6367 75.0557 30.3992 74.9606 30.1787C74.8654 29.9582 74.7262 29.7595 74.5515 29.5948C74.0864 29.2706 73.5245 29.1151 72.9588 29.1543H71.0838V32.6108H72.9588ZM72.9588 28.2054C73.8015 28.1574 74.634 28.4095 75.3084 28.9171C75.5779 29.1686 75.7928 29.4729 75.9398 29.811C76.0867 30.1491 76.1625 30.5138 76.1625 30.8825C76.1625 31.2512 76.0867 31.6159 75.9398 31.954C75.7928 32.2921 75.5779 32.5964 75.3084 32.848C74.634 33.3555 73.8015 33.6076 72.9588 33.5596H71.0838V35.8865H70.0333V28.2393L72.9588 28.2054Z" fill="#A3A4A7"/>
<path d="M26.782 35.9769L3.67102 0.0791017H14.1534C14.7964 0.0789298 15.4291 0.240174 15.9935 0.548048C16.558 0.855923 17.0361 1.30058 17.384 1.84123L27.6744 17.8247L37.9535 1.84123C38.3014 1.30058 38.7795 0.855923 39.344 0.548048C39.9084 0.240174 40.5411 0.0789298 41.1841 0.0791017H51.6665L28.5555 35.9769H26.782Z" fill="#00902A"/>
<path d="M21.3827 27.5954L3.67102 0.0791017H14.1534C14.7964 0.0789298 15.4291 0.240174 15.9935 0.548048C16.558 0.855923 17.0361 1.30058 17.384 1.84123L27.6744 17.8247L21.3827 27.5954Z" fill="url(#paint0_linear)"/>
<path d="M55.3377 35.9766L46.1204 21.6423L36.9482 35.9766H55.3377Z" fill="#A3A4A7"/>
<path d="M18.3894 35.9766L9.16082 21.6423L0 35.9766H18.3894Z" fill="#A3A4A7"/>
<defs>
<linearGradient id="paint0_linear" x1="26.1043" y1="23.9695" x2="17.7681" y2="12.4818" gradientUnits="userSpaceOnUse">
<stop stop-color="#5EB043"/>
<stop offset="1" stop-color="#7ABA57"/>
</linearGradient>
</defs>
</svg>
