<svg width="25" height="24" viewBox="0 0 25 24" fill="none" xmlns="http://www.w3.org/2000/svg">
<path d="M18.1337 0H7.12683C3.54456 0 0.630249 2.91431 0.630249 6.49658V17.5036C0.630249 21.0857 3.54456 24 7.12683 24H18.1339C21.7159 24 24.6302 21.0857 24.6302 17.5036V6.49658C24.6302 2.91431 21.7159 0 18.1337 0ZM23.2233 17.5036C23.2233 20.3099 20.9401 22.593 18.1337 22.593H7.12683C4.32037 22.593 2.03723 20.3099 2.03723 17.5036V6.49658C2.03723 3.69012 4.32037 1.40698 7.12683 1.40698H18.1339C20.9401 1.40698 23.2233 3.69012 23.2233 6.49658V17.5036Z" fill="white"/>
<path d="M12.6302 5.43771C9.01171 5.43771 6.06792 8.3815 6.06792 12C6.06792 15.6186 9.01171 18.5623 12.6302 18.5623C16.2488 18.5623 19.1926 15.6186 19.1926 12C19.1926 8.3815 16.2488 5.43771 12.6302 5.43771ZM12.6302 17.1554C9.78771 17.1554 7.47491 14.8427 7.47491 12C7.47491 9.1575 9.78771 6.84469 12.6302 6.84469C15.473 6.84469 17.7856 9.1575 17.7856 12C17.7856 14.8427 15.473 17.1554 12.6302 17.1554Z" fill="white"/>
<path d="M19.3495 3.10714C18.2802 3.10714 17.4104 3.97708 17.4104 5.04623C17.4104 6.11557 18.2802 6.9855 19.3495 6.9855C20.4188 6.9855 21.2888 6.11557 21.2888 5.04623C21.2888 3.97689 20.4188 3.10714 19.3495 3.10714ZM19.3495 5.57833C19.0562 5.57833 18.8174 5.33956 18.8174 5.04623C18.8174 4.75271 19.0562 4.51413 19.3495 4.51413C19.643 4.51413 19.8818 4.75271 19.8818 5.04623C19.8818 5.33956 19.643 5.57833 19.3495 5.57833Z" fill="white"/>
</svg>
