<svg width="14" height="23" viewBox="0 0 14 23" fill="none" xmlns="http://www.w3.org/2000/svg">
<path opacity="0.9" d="M8.66014 23H4.99224C4.37958 23 3.88121 22.4995 3.88121 21.8843V13.5766H1.74128C1.12862 13.5766 0.630249 13.076 0.630249 12.4609V8.90102C0.630249 8.2858 1.12862 7.78535 1.74128 7.78535H3.88121V6.00269C3.88121 4.23512 4.43393 2.73129 5.47943 1.65404C6.52965 0.571877 7.99733 0 9.72382 0L12.5211 0.00456236C13.1327 0.00561523 13.6302 0.506073 13.6302 1.12024V4.42551C13.6302 5.04073 13.1321 5.54118 12.5196 5.54118L10.6362 5.54189C10.0618 5.54189 9.91551 5.65752 9.88423 5.69297C9.83268 5.75175 9.77135 5.91793 9.77135 6.3768V7.78517H12.378C12.5743 7.78517 12.7644 7.83378 12.9278 7.92538C13.2802 8.12314 13.4994 8.49708 13.4994 8.9012L13.498 12.4611C13.498 13.076 12.9996 13.5764 12.3869 13.5764H9.77135V21.8843C9.77135 22.4995 9.2728 23 8.66014 23ZM5.22395 21.6516H8.42843V12.9729C8.42843 12.5622 8.76132 12.2281 9.17023 12.2281H12.1552L12.1564 9.13371H9.17005C8.76115 9.13371 8.42843 8.7996 8.42843 8.38881V6.3768C8.42843 5.85002 8.48173 5.25095 8.8777 4.80067C9.35615 4.25635 10.1102 4.19353 10.6358 4.19353L12.2875 4.19283V1.35257L9.72277 1.34836C6.94816 1.34836 5.22395 3.1319 5.22395 6.00269V8.38881C5.22395 8.79942 4.89124 9.13371 4.48233 9.13371H1.97299V12.2281H4.48233C4.89124 12.2281 5.22395 12.5622 5.22395 12.9729V21.6516ZM12.5185 1.35292H12.5187H12.5185Z" fill="white"/>
</svg>
