<svg width="59" height="58" viewBox="0 0 59 58" fill="none" xmlns="http://www.w3.org/2000/svg">
<path d="M58.6302 29C58.6302 45.0163 45.6465 58 29.6302 58C13.614 58 0.630249 45.0163 0.630249 29C0.630249 12.9837 13.614 0 29.6302 0C45.6465 0 58.6302 12.9837 58.6302 29Z" fill="white"/>
<path d="M25.133 21.2406C25.4572 20.9198 25.9677 20.9198 26.2919 21.2406C26.6052 21.5507 26.6052 22.0666 26.2919 22.3759L20.4154 28.191H39.8072C40.2593 28.191 40.6302 28.5465 40.6302 28.9939C40.6302 29.4412 40.2593 29.8083 39.8072 29.8083H20.4154L26.2919 35.6125C26.6052 35.9334 26.6052 36.4501 26.2919 36.7594C25.9677 37.0802 25.4572 37.0802 25.133 36.7594L17.8652 29.5676C17.5519 29.2576 17.5519 28.7417 17.8652 28.4324L25.133 21.2406Z" fill="#231F20"/>
</svg>
